<?xml version="1.0" standalone="no"?>
<!DOCTYPE svg PUBLIC "-//W3C//DTD SVG 20010904//EN"
 "http://www.w3.org/TR/2001/REC-SVG-20010904/DTD/svg10.dtd">
<svg version="1.0" xmlns="http://www.w3.org/2000/svg"
 width="1024.000000pt" height="1024.000000pt" viewBox="0 0 1024.000000 1024.000000"
 preserveAspectRatio="xMidYMid meet">
<metadata>
Created by potrace 1.16, written by Peter Selinger 2001-2019
</metadata>
<g transform="translate(0.000000,1024.000000) scale(0.100000,-0.100000)"
fill="#000000" stroke="none">
<path d="M4320 9820 c-448 -46 -702 -301 -888 -895 -84 -268 -110 -448 -122
-875 -15 -513 -14 -494 -37 -498 -17 -3 -66 8 -298 63 -125 30 -272 46 -422
46 -84 0 -165 -3 -180 -7 -114 -25 -163 -59 -163 -113 0 -83 108 -202 262
-287 80 -45 262 -120 373 -153 39 -12 79 -25 90 -30 24 -10 312 -56 440 -70
358 -40 507 -44 995 -32 250 6 568 16 705 22 187 9 299 9 445 0 551 -33 888
-39 1100 -20 63 5 151 12 195 14 44 2 121 15 172 28 51 14 93 24 95 22 2 -1
19 -5 38 -9 24 -4 30 -3 20 4 -27 17 3 30 151 70 223 59 352 110 536 208 193
102 256 180 215 262 -14 27 -36 44 -91 72 -162 82 -380 75 -734 -23 -60 -17
-111 -29 -113 -27 -8 9 -24 147 -24 216 0 40 -5 82 -11 93 -10 19 -27 117 -64
369 -63 426 -194 916 -305 1142 -111 224 -252 345 -415 356 -98 6 -163 -13
-361 -107 -209 -98 -252 -111 -370 -111 -106 0 -215 25 -419 96 -218 76 -387
132 -450 148 -50 13 -268 39 -285 35 -3 -1 -39 -5 -80 -9z m1019 -1933 c11
-10 12 -37 7 -155 -4 -79 -10 -150 -13 -158 -12 -31 -137 -43 -262 -25 -86 12
-92 26 -90 187 1 73 5 138 9 145 5 6 25 15 46 20 54 11 285 1 303 -14z"/>
<path d="M5027 7853 c-2 -5 -1 -65 1 -135 l4 -128 128 0 c92 0 131 4 137 12 4
7 9 68 11 135 l4 123 -140 0 c-78 0 -142 -3 -145 -7z"/>
<path d="M259 7672 c-39 -20 -59 -39 -77 -72 -35 -65 -26 -124 42 -282 137
-316 158 -500 96 -843 -41 -230 -50 -427 -26 -565 46 -264 159 -502 298 -625
65 -57 189 -119 285 -143 39 -10 78 -23 85 -30 8 -6 18 -9 21 -5 4 3 21 6 39
5 43 -1 68 14 68 42 0 34 -20 46 -97 57 -313 43 -486 220 -591 609 -23 86 -26
113 -26 280 0 166 3 204 33 375 64 360 38 567 -110 899 -67 150 -63 200 17
226 52 17 122 7 271 -41 211 -67 305 -86 558 -114 306 -33 462 -72 615 -151
196 -101 348 -275 456 -522 39 -90 42 -112 14 -119 -38 -10 -160 -72 -160 -81
0 -5 113 -7 265 -4 146 3 265 3 265 1 0 -2 -51 -56 -113 -119 -101 -103 -237
-281 -237 -312 0 -14 13 -9 151 52 276 121 550 144 832 71 118 -31 273 -89
263 -98 -3 -3 -53 2 -112 12 -146 24 -483 17 -622 -13 -283 -62 -527 -190
-718 -379 -234 -232 -415 -585 -458 -894 l-7 -47 -59 -4 c-44 -3 -66 -10 -83
-26 -13 -12 -29 -22 -36 -22 -8 0 -82 38 -165 84 -245 136 -454 238 -476 231
-21 -7 -37 -46 -26 -64 6 -8 141 -88 176 -102 8 -4 89 -48 180 -99 91 -51 193
-108 227 -127 45 -25 68 -45 79 -69 27 -56 68 -84 125 -84 l49 0 0 -44 c0
-121 55 -325 127 -474 118 -242 351 -469 606 -591 113 -54 300 -115 437 -143
102 -20 143 -23 365 -23 201 0 270 4 350 19 283 52 589 197 783 370 34 31 65
56 68 56 2 0 -3 -17 -13 -37 -128 -288 -132 -571 -9 -757 150 -225 447 -346
853 -346 240 0 447 42 622 126 79 37 107 58 175 127 125 126 176 247 176 418
0 110 -22 225 -65 345 -19 52 -32 94 -30 94 2 0 27 -21 57 -46 178 -152 421
-266 709 -331 119 -26 135 -28 389 -28 299 0 374 11 600 85 373 122 667 370
825 694 62 128 89 223 107 374 6 59 16 110 22 114 6 4 29 8 51 8 35 0 45 6 95
59 48 51 156 139 242 195 l27 17 29 -93 c48 -149 79 -283 101 -438 11 -80 22
-156 24 -170 3 -14 5 2 6 35 2 97 -67 442 -116 585 -15 42 -24 83 -21 91 4 9
49 47 102 85 54 38 96 75 96 85 0 19 -31 49 -52 49 -8 0 -53 -27 -99 -60 -46
-33 -88 -59 -93 -57 -9 3 -56 123 -56 143 0 6 35 16 80 22 322 46 520 225 635
576 77 235 85 473 25 786 -60 319 -39 517 91 822 70 166 79 210 55 271 -52
138 -194 155 -477 59 -145 -50 -258 -72 -579 -112 -357 -46 -505 -92 -683
-212 -153 -103 -305 -301 -392 -511 -18 -43 -35 -80 -38 -84 -4 -3 -26 -1 -49
5 -28 7 -83 8 -158 3 -63 -5 -117 -7 -119 -5 -7 6 86 43 126 50 21 4 43 10 49
15 6 5 44 16 85 24 88 19 100 28 66 49 -61 41 -320 49 -455 16 -45 -11 -89
-23 -98 -27 -12 -4 -15 -3 -10 6 4 6 61 38 126 71 123 62 142 76 115 86 -19 8
-231 -14 -260 -26 -11 -4 -73 -25 -137 -45 -288 -90 -571 -277 -860 -567 -113
-114 -268 -295 -296 -344 -6 -11 -13 -16 -16 -13 -9 9 40 171 88 292 28 69 39
110 33 114 -19 12 -130 -121 -179 -213 -49 -94 -97 -223 -117 -314 -7 -30 -15
-62 -19 -70 -11 -29 -20 86 -15 193 4 74 3 107 -5 107 -32 0 -76 -123 -92
-259 -17 -137 13 -336 62 -403 31 -45 56 -36 162 53 53 45 98 80 100 78 2 -2
-18 -38 -45 -79 -142 -214 -229 -465 -248 -710 -4 -55 -10 -102 -13 -105 -3
-3 -44 13 -92 35 -124 59 -201 73 -371 67 -167 -5 -248 -29 -366 -107 -41 -26
-77 -46 -81 -43 -5 2 -8 44 -8 92 0 115 -24 252 -66 379 -40 122 -137 317
-200 403 -25 33 -44 63 -42 65 2 2 39 -28 81 -66 84 -76 106 -90 136 -90 42 0
84 98 103 242 15 115 -1 259 -39 359 -25 63 -54 103 -66 89 -2 -3 0 -43 5 -90
8 -87 2 -220 -11 -220 -4 0 -15 37 -25 83 -37 173 -129 364 -227 472 -73 79
-81 61 -30 -68 45 -117 94 -287 82 -287 -5 0 -20 18 -35 40 -44 67 -198 239
-312 351 -304 295 -570 462 -879 552 -70 21 -244 57 -272 57 -2 0 -1 5 2 10 4
7 -3 8 -22 4 -49 -12 -73 -23 -73 -34 0 -5 -6 -10 -13 -10 -7 0 -38 -15 -68
-33 -30 -18 -81 -41 -114 -51 -96 -28 -123 -43 -127 -68 -2 -12 -13 -27 -25
-33 -33 -17 -87 -64 -81 -71 6 -5 107 62 120 80 10 15 106 0 208 -33 157 -50
156 -58 -6 -53 -122 4 -233 -5 -311 -25 -15 -3 -23 -1 -23 7 0 26 -113 248
-168 330 -98 147 -246 281 -392 355 -160 81 -302 114 -660 155 -237 27 -322
44 -480 95 -227 73 -307 81 -391 37z m9564 -84 c61 -32 61 -80 1 -210 -150
-329 -176 -548 -108 -944 26 -156 35 -239 36 -329 1 -249 -80 -506 -215 -683
-91 -119 -253 -200 -442 -218 -38 -4 -76 -11 -82 -17 -19 -14 -16 -48 6 -71
17 -19 81 -159 81 -178 0 -7 -153 -113 -198 -137 -20 -10 -27 -9 -52 12 -19
17 -46 26 -88 31 l-59 7 -12 86 c-27 191 -141 459 -279 652 -77 109 -216 253
-317 329 -89 67 -295 172 -405 207 -257 81 -619 104 -835 55 -85 -20 -70 -3
30 35 146 55 259 77 430 82 232 8 382 -25 609 -131 53 -24 96 -40 96 -34 0 41
-165 259 -278 366 l-77 74 263 -5 c144 -3 262 -2 262 2 0 5 -6 13 -12 19 -23
18 -182 80 -240 93 -42 9 -58 17 -58 29 0 26 77 179 135 266 63 95 219 247
298 293 148 85 270 118 592 161 326 43 428 64 610 120 167 51 262 63 308 38z
m-6872 -679 c66 -34 118 -63 116 -66 -3 -2 -39 5 -81 16 -42 11 -112 23 -154
26 -42 3 -97 8 -120 11 -42 5 -43 6 -25 23 10 10 21 17 24 15 3 -1 19 6 35 16
47 30 78 24 205 -41z m4492 -840 c306 -61 549 -189 743 -391 203 -211 332
-458 394 -758 26 -124 31 -356 11 -485 -42 -258 -134 -438 -320 -626 -197
-198 -424 -315 -736 -381 -97 -20 -137 -23 -350 -23 -266 0 -372 15 -558 76
-461 153 -760 454 -869 877 -60 233 -48 509 32 754 147 447 503 804 920 923
153 45 222 53 433 54 163 1 217 -3 300 -20z m-3972 -22 c436 -103 757 -367
965 -793 44 -89 75 -169 96 -250 30 -115 31 -126 32 -329 0 -195 -2 -217 -26
-306 -74 -273 -187 -453 -390 -623 -162 -135 -354 -236 -561 -296 -173 -49
-223 -55 -487 -55 -214 1 -258 4 -350 23 -285 60 -524 176 -698 338 -231 213
-342 450 -371 790 -45 518 239 1079 678 1344 233 140 457 191 801 185 176 -3
220 -7 311 -28z m1884 -1362 c72 -19 177 -67 221 -100 27 -21 33 -33 38 -82 4
-32 16 -96 27 -142 11 -46 18 -85 16 -87 -2 -2 -25 13 -53 33 -262 190 -652
187 -911 -9 -34 -25 -63 -44 -66 -42 -7 7 51 215 68 240 32 49 162 141 245
174 104 41 291 48 415 15z m13 -358 c194 -68 305 -184 480 -500 93 -167 172
-426 172 -562 0 -232 -153 -431 -396 -515 -161 -56 -224 -65 -479 -64 -237 0
-242 0 -358 31 -156 42 -251 89 -331 164 -125 117 -169 215 -169 384 -1 158
48 332 148 530 210 417 416 571 750 561 87 -2 125 -8 183 -29z"/>
<path d="M9490 7345 c-47 -20 -150 -58 -230 -86 -243 -86 -387 -169 -513 -296
-113 -115 -163 -195 -227 -367 -83 -221 -155 -324 -268 -384 -64 -34 -78 -53
-62 -82 15 -28 32 -29 89 -6 70 30 180 140 225 226 19 36 61 135 95 220 35 89
79 183 105 221 45 66 158 179 232 229 85 59 254 134 459 204 44 16 114 44 155
64 64 31 75 41 75 62 0 37 -35 36 -135 -5z"/>
<path d="M9130 6514 c-153 -32 -336 -111 -466 -200 -149 -102 -222 -180 -203
-216 16 -30 38 -21 118 50 144 130 247 194 406 256 112 43 232 66 341 66 87 0
93 4 78 44 -5 13 -24 16 -108 15 -55 0 -130 -7 -166 -15z"/>
<path d="M8780 6016 c-78 -14 -158 -49 -167 -71 -3 -10 2 -25 14 -36 19 -20
20 -20 99 12 68 28 94 33 190 37 128 5 228 -15 340 -69 44 -20 69 -28 76 -21
20 20 2 45 -52 73 -152 79 -334 106 -500 75z"/>
<path d="M6860 5404 c-369 -47 -676 -162 -925 -345 -75 -55 -139 -125 -132
-143 5 -13 20 -6 73 34 36 28 87 61 113 75 l48 24 12 -99 c22 -182 77 -326
176 -465 81 -114 207 -208 345 -257 92 -32 276 -32 365 1 246 90 411 290 470
567 26 123 17 341 -19 446 -12 32 -12 40 -1 44 22 9 193 -25 256 -51 53 -21
61 -22 66 -8 26 67 -156 156 -377 183 -113 13 -340 11 -470 -6z m-307 -277
c48 -37 70 -88 65 -149 -9 -88 -75 -148 -163 -148 -88 0 -154 60 -162 147 -8
75 36 147 107 176 35 15 118 1 153 -26z m281 -428 c53 -42 23 -122 -46 -122
-64 0 -92 83 -42 122 15 12 34 21 44 21 10 0 29 -9 44 -21z m294 -145 c31 -36
29 -79 -7 -115 -36 -36 -70 -37 -110 -3 -43 36 -43 84 -1 126 26 25 36 29 63
24 18 -3 42 -17 55 -32z"/>
<path d="M2894 5406 c-112 -18 -210 -50 -266 -85 -52 -33 -83 -73 -74 -96 5
-13 12 -12 58 4 67 25 158 47 227 56 48 6 53 5 48 -9 -45 -116 -56 -357 -24
-490 69 -278 233 -474 463 -552 66 -23 96 -27 184 -27 120 1 166 11 267 61
141 69 256 185 331 331 61 118 91 223 107 384 4 34 11 57 18 57 19 0 134 -70
179 -109 52 -44 73 -29 33 24 -50 64 -193 162 -360 245 -208 103 -373 156
-605 195 -130 22 -479 29 -586 11z m419 -210 c18 -7 47 -29 64 -49 82 -93 41
-225 -82 -263 -51 -16 -56 -16 -99 0 -110 42 -148 177 -75 261 54 61 124 80
192 51z m300 -478 c38 -44 7 -118 -50 -118 -38 0 -73 36 -73 75 0 67 78 94
123 43z m288 -177 c32 -33 36 -58 14 -100 -29 -56 -106 -63 -145 -14 -71 90
50 195 131 114z"/>
<path d="M4758 3734 c-32 -17 -104 -134 -148 -242 -67 -159 -43 -294 61 -347
37 -20 119 -19 147 1 73 51 102 246 68 455 -23 143 -53 174 -128 133z"/>
<path d="M5473 3739 c-42 -15 -66 -94 -78 -254 -12 -157 19 -285 81 -334 32
-25 110 -28 154 -6 56 29 100 108 100 179 -1 68 -18 125 -74 241 -70 144 -125
196 -183 174z"/>
<path d="M494 7365 c-4 -8 -4 -21 -1 -28 8 -20 140 -80 302 -137 255 -90 411
-177 526 -297 82 -85 137 -169 177 -270 17 -43 47 -121 68 -173 46 -119 85
-180 161 -251 97 -92 181 -122 198 -70 9 29 -2 45 -52 71 -25 13 -70 47 -100
73 -58 54 -101 134 -188 349 -78 194 -170 315 -331 434 -107 80 -214 131 -446
213 -106 38 -210 76 -230 85 -47 20 -77 20 -84 1z"/>
<path d="M2906 7041 c-4 -5 3 -7 14 -4 23 6 26 13 6 13 -8 0 -17 -4 -20 -9z"/>
<path d="M7610 6756 c0 -2 7 -6 15 -10 8 -3 15 -1 15 4 0 6 -7 10 -15 10 -8 0
-15 -2 -15 -4z"/>
<path d="M722 6521 c-8 -5 -12 -17 -10 -27 3 -17 14 -19 96 -21 126 -3 314
-54 442 -118 87 -44 226 -143 304 -215 l78 -74 48 54 c27 30 46 59 43 64 -3 5
-13 -3 -22 -18 -8 -14 -20 -26 -24 -26 -5 0 -37 26 -71 57 -97 90 -172 141
-301 204 -136 66 -240 103 -335 118 -78 13 -230 14 -248 2z"/>
<path d="M1582 6029 c-7 -11 -11 -23 -9 -25 7 -7 29 24 25 36 -2 6 -9 1 -16
-11z"/>
<path d="M1045 6016 c-87 -16 -214 -69 -251 -102 -23 -22 -25 -27 -12 -40 12
-13 24 -10 89 20 153 70 351 89 479 46 35 -12 73 -28 84 -36 30 -21 52 -17 70
11 16 24 15 25 -21 48 -21 13 -60 32 -88 41 -67 23 -257 30 -350 12z"/>
<path d="M1539 5973 c-13 -16 -12 -17 4 -4 9 7 17 15 17 17 0 8 -8 3 -21 -13z"/>
<path d="M4920 5843 c-1 -88 -17 -195 -40 -259 -22 -65 -63 -112 -129 -151
-42 -24 -43 -27 -25 -40 27 -20 90 -9 139 25 51 36 101 132 115 225 16 101
-11 243 -47 255 -10 3 -13 -13 -13 -55z"/>
<path d="M5282 5853 c-13 -28 -17 -66 -17 -148 0 -102 2 -114 31 -175 17 -36
44 -78 60 -94 52 -52 137 -73 164 -41 10 12 7 18 -21 32 -62 32 -126 107 -144
165 -22 74 -38 205 -30 256 5 35 3 42 -10 42 -9 0 -24 -17 -33 -37z"/>
<path d="M5098 5684 c-6 -16 -12 -71 -12 -124 1 -144 38 -215 139 -268 40 -20
65 -26 124 -26 86 -1 103 15 44 40 -165 72 -181 82 -207 137 -14 30 -31 95
-40 151 -17 112 -29 134 -48 90z"/>
<path d="M835 4778 c-108 -341 -146 -615 -140 -1008 5 -270 44 -524 126 -805
158 -545 449 -1016 890 -1439 185 -177 516 -420 758 -555 135 -76 312 -163
318 -157 3 2 -24 19 -58 37 -396 198 -667 378 -939 623 -116 104 -349 358
-442 481 -132 176 -218 316 -323 532 -150 307 -231 567 -282 908 -23 152 -26
200 -26 455 0 306 14 446 68 675 19 79 84 307 110 383 2 6 0 12 -5 12 -5 0
-30 -64 -55 -142z"/>
<path d="M9304 3970 c0 -74 1 -105 3 -67 2 37 2 97 0 135 -2 37 -3 6 -3 -68z"/>
<path d="M9303 3730 c0 -41 2 -58 4 -37 2 20 2 54 0 75 -2 20 -4 3 -4 -38z"/>
<path d="M9286 3531 c-30 -405 -166 -831 -388 -1224 -119 -209 -234 -371 -388
-547 -136 -154 -175 -193 -338 -334 -56 -48 -102 -90 -102 -92 0 -8 97 70 170
136 414 375 717 817 892 1300 90 250 159 572 170 798 5 88 -9 58 -16 -37z"/>
<path d="M6635 2916 c-103 -33 -199 -105 -180 -136 3 -4 32 3 65 17 35 14 92
27 133 30 l72 6 -29 -32 c-50 -52 -191 -147 -314 -209 -245 -125 -514 -203
-857 -249 -101 -13 -204 -17 -455 -17 -349 0 -486 11 -760 61 -212 38 -208 38
-230 18 -25 -22 -26 -69 -2 -93 32 -32 396 -91 696 -113 190 -14 599 -6 766
16 535 68 955 237 1259 506 l92 80 52 -28 c28 -15 85 -61 125 -101 75 -74 102
-85 102 -39 0 66 -108 200 -199 246 -95 49 -246 65 -336 37z"/>
<path d="M5757 1864 c-301 -90 -694 -101 -962 -25 -38 11 -72 18 -74 15 -10
-10 46 -55 109 -88 89 -47 209 -75 351 -83 243 -13 465 43 641 160 80 53 61
59 -65 21z"/>
<path d="M8023 1307 c-34 -23 -46 -45 -15 -28 16 9 60 52 51 50 -2 0 -19 -10
-36 -22z"/>
<path d="M7926 1235 c-65 -45 -94 -74 -46 -46 34 20 110 80 100 80 -3 0 -27
-15 -54 -34z"/>
<path d="M7745 1112 c-419 -270 -879 -466 -1385 -589 -63 -15 -107 -29 -97
-31 33 -7 352 80 549 150 214 74 437 173 643 282 161 85 413 247 383 246 -2 0
-43 -26 -93 -58z"/>
<path d="M2845 783 c133 -69 488 -194 701 -247 60 -15 134 -33 164 -41 86 -22
141 -33 335 -65 163 -28 432 -57 441 -48 1 2 -61 12 -139 22 -350 43 -481 67
-722 127 -290 73 -491 140 -733 243 -98 42 -118 46 -47 9z"/>
<path d="M415 570 c-18 -6 -15 -10 20 -28 60 -32 73 -45 103 -100 l27 -50 19
44 18 44 -42 40 c-23 21 -39 43 -36 48 3 5 -15 6 -39 2 -24 -4 -46 -4 -47 0
-2 4 -12 4 -23 0z m135 -81 c0 -6 -4 -7 -10 -4 -5 3 -10 11 -10 16 0 6 5 7 10
4 6 -3 10 -11 10 -16z"/>
<path d="M6135 474 c-185 -40 -538 -86 -757 -99 -147 -8 -230 -16 -225 -21 7
-8 367 16 487 32 290 38 353 48 469 70 68 13 126 26 129 29 9 8 -38 3 -103
-11z"/>
<path d="M4558 373 c12 -2 30 -2 40 0 9 3 -1 5 -23 4 -22 0 -30 -2 -17 -4z"/>
<path d="M4738 363 c12 -2 32 -2 45 0 12 2 2 4 -23 4 -25 0 -35 -2 -22 -4z"/>
<path d="M5012 361 c-8 -5 14 -8 55 -9 61 0 64 1 28 8 -52 11 -67 12 -83 1z"/>
<path d="M4883 353 c15 -2 37 -2 50 0 12 2 0 4 -28 4 -27 0 -38 -2 -22 -4z"/>
</g>
</svg>
